<?xml version="1.0" encoding="UTF-8" standalone="no"?>
<!-- Created with Inkscape (http://www.inkscape.org/) -->

<svg
   xmlns:dc="http://purl.org/dc/elements/1.1/"
   xmlns:cc="http://creativecommons.org/ns#"
   xmlns:rdf="http://www.w3.org/1999/02/22-rdf-syntax-ns#"
   xmlns:svg="http://www.w3.org/2000/svg"
   xmlns="http://www.w3.org/2000/svg"
   xmlns:sodipodi="http://sodipodi.sourceforge.net/DTD/sodipodi-0.dtd"
   xmlns:inkscape="http://www.inkscape.org/namespaces/inkscape"
   version="1.1"
   id="svg10"
   width="425.33334"
   height="485.33334"
   viewBox="0 0 425.33334 485.33334"
   sodipodi:docname="LOGO.svg"
   inkscape:version="0.92.1 r15371">
  <metadata
     id="metadata16">
    <rdf:RDF>
      <cc:Work
         rdf:about="">
        <dc:format>image/svg+xml</dc:format>
        <dc:type
           rdf:resource="http://purl.org/dc/dcmitype/StillImage" />
        <dc:title />
      </cc:Work>
    </rdf:RDF>
  </metadata>
  <defs
     id="defs14" />
  <sodipodi:namedview
     pagecolor="#ffffff"
     bordercolor="#666666"
     borderopacity="1"
     objecttolerance="10"
     gridtolerance="10"
     guidetolerance="10"
     inkscape:pageopacity="0"
     inkscape:pageshadow="2"
     inkscape:window-width="1366"
     inkscape:window-height="705"
     id="namedview12"
     showgrid="false"
     showguides="true"
     inkscape:guide-bbox="true"
     inkscape:zoom="0.7634422"
     inkscape:cx="224.79371"
     inkscape:cy="198.64544"
     inkscape:window-x="-8"
     inkscape:window-y="-8"
     inkscape:window-maximized="1"
     inkscape:current-layer="svg10">
    <sodipodi:guide
       position="586.29008,-8.335878"
       orientation="0,1"
       id="guide3696"
       inkscape:locked="false" />
  </sodipodi:namedview>
  <path
     style="fill:#ffffff;stroke:#000000;stroke-width:1px;stroke-linecap:butt;stroke-linejoin:miter;stroke-opacity:1"
     d="m 19.295778,414.65054 c -1.92739,-5.95906 -3.9911,-14.24985 -4.16794,-17.82952 -0.28939,-5.24843 0.30874,-20.99406 0.46311,-31.49109 l 0.69466,-38.66922 0.4631,-53.48855 -0.4631,-57.88804 0.4631,-49.55216 -0.23155,-79.653946 c -0.13322,-6.378111 0.47444,-8.519686 0.92621,-12.503817 1.45831,-6.088778 5.65407,-15.513539 9.95674,-21.302799 5.54143,-7.100933 10.06404,-14.201867 17.59796,-21.3028 8.44142,-5.977828 16.52446,-12.493211 26.6285,-15.977099 6.02197,-1.546091 11.97167,-2.983797 17.13486,-3.241731 7.25331,-0.661738 14.402322,-0.658118 19.450392,-0.231552 7.12141,0.548159 13.40485,2.353289 19.21883,4.862596 16.89295,8.240001 29.24756,16.886087 43.87134,25.32913 l 48.74953,31.864255 34.50127,21.071245 26.58055,16.647338 c 2.85046,2.38657 4.62111,3.96956 5.22637,8.45621 0.0619,4.05503 -0.6887,5.24527 -2.3998,9.68546 -2.4416,3.75091 -7.54589,7.40963 -9.39602,7.85462 -0.7741,0.52653 -7.04672,0.9336 -11.5444,-1.28007 L 223.75635,110.62254 181.15075,83.994045 134.37721,55.050024 c -6.87205,-4.82709 -14.00794,-8.686737 -21.53435,-11.114504 -2.95059,-1.17838 -6.803,-1.635295 -10.83344,-1.949796 -4.017632,-0.03376 -8.317212,-0.566039 -13.262302,0.409331 -5.37044,1.42956 -13.00878,2.972011 -16.29025,4.821923 -3.04827,1.277937 -9.31836,5.51619 -14.35623,11.114504 l -8.23997,13.158746 -4.16794,16.440203 v 38.669209 l -0.23155,79.42239 0.23155,97.25191 0.23155,88.91604 c 0.31373,5.5591 1.09618,10.42955 2.08397,15.28244 4.35423,10.71001 11.68297,18.6326 16.44021,21.99746 3.90209,3.99832 14.28733,9.93692 23.1833,11.96126 7.28304,0.81087 18.466812,2.51204 25.007652,-0.46311 12.05259,-5.06767 18.70212,-10.13533 25.67419,-15.20299 l 34.26972,-21.7659 63.9084,-39.82698 56.26718,-35.42748 41.21628,-25.47074 36.12214,-23.61832 c 6.07489,-6.3881 11.69292,-12.92848 13.89313,-20.60814 3.68675,-11.26887 3.52907,-22.53775 0.23155,-33.80662 -3.94648,-11.59097 -9.64976,-18.78994 -16.20865,-23.84987 -5.57517,-4.71898 -10.38314,-8.22447 -12.04071,-11.34606 -1.55602,-4.09075 -1.96911,-9.49136 0.8303,-13.58212 3.55177,-4.75056 6.81092,-6.56291 6.81092,-6.56291 3.74844,-0.83084 7.40259,-1.79637 14.12468,1.62086 4.64025,3.9565 6.27736,4.70964 16.90331,15.05089 6.44226,7.52739 8.70097,10.81659 10.88295,15.05089 4.99549,8.2446 6.75665,16.02716 8.79898,23.84988 1.66628,9.94507 2.53166,19.31808 1.15777,27.0916 -0.0719,10.91635 -6.12217,22.30168 -8.29616,27.26015 -1.08608,3.07074 -3.23371,5.8952 -6.23036,9.83072 -3.72055,4.88622 -10.40862,10.59861 -15.38826,15.25637 -7.70394,7.05478 -21.69875,15.2902 -33.53052,22.44411 l -58.81425,35.89059 -74.32825,46.77353 -53.48855,33.34352 c -12.42663,7.87277 -29.92896,20.4361 -37.27989,23.61832 -3.43169,1.73447 -18.97759,5.44165 -29.175582,5.3257 -5.18967,0.36758 -9.35457,-0.20483 -18.52417,-1.85242 -13.78631,-4.64279 -27.27054,-10.19179 -38.90077,-21.3028 -8.30792,-8.43139 -16.48975,-17.29362 -22.22901,-34.50127 z"
     id="path3690"
     inkscape:connector-curvature="0"
     sodipodi:nodetypes="cccccccccccccccccccccccccccccccccccccccccccccccccccccccccccscccccccccc" />
  <path
     style="fill:#ffffff;stroke:#000000;stroke-width:1px;stroke-linecap:butt;stroke-linejoin:miter;stroke-opacity:1"
     d="m 103.25807,320.94464 -0.32747,-41.26049 0.32747,-110.35544 52.06681,0.32747 0.32746,151.61593 z"
     id="path3692"
     inkscape:connector-curvature="0" />
  <path
     style="fill:#ffffff;stroke:#000000;stroke-width:1px;stroke-linecap:butt;stroke-linejoin:miter;stroke-opacity:1"
     d="m 168.69872,322.11887 0.98239,-152.92579 112.97515,0.65493 -0.32746,43.55274 h -50.75695 l -10.80632,11.78872 h 49.77456 l -0.32747,43.55274 -48.79216,-0.65493 -0.32747,55.01399 z"
     id="path3694"
     inkscape:connector-curvature="0" />
  <path
     style="fill:#cccccc;fill-opacity:0;fill-rule:evenodd;stroke-width:1.30985689"
     d="m 82.478739,470.17431 c -5.262928,-1 -20.982034,-7.80463 -28.589615,-12.37613 -9.815222,-5.89811 -23.886666,-21.18965 -28.911607,-31.41845 -2.246133,-4.57225 -5.173208,-12.43923 -6.504611,-17.48218 -2.310881,-8.75292 -2.389167,-16.56932 -1.725135,-172.24617 l 0.695597,-163.077183 4.247893,-8.96906 c 9.288716,-19.612324 27.134978,-37.827937 45.033,-45.965012 15.01597,-6.826792 41.455489,-7.832862 56.383299,-2.145483 8.80725,3.355494 41.66756,22.859305 71.82141,42.628664 11.88695,7.793282 35.46438,22.675767 52.39428,33.072191 16.9299,10.396423 32.18154,20.272473 33.89254,21.946783 7.99862,7.82708 -1.91924,24.70465 -13.1924,22.45001 -2.30928,-0.46186 -13.65852,-6.94268 -25.22052,-14.40182 C 201.47946,95.530972 126.03339,48.93048 118.95727,45.695226 113.80301,43.33866 108.70029,42.225123 101.02458,41.781884 79.287046,40.526632 62.618959,48.029297 53.183297,63.316276 c -9.436172,15.28781 -8.9896,5.784809 -8.590784,182.810424 l 0.357849,158.84128 3.761814,7.6612 c 4.928027,10.03628 15.509858,20.29158 26.615158,25.79387 7.834795,3.88188 10.441102,4.48285 21.444886,4.94483 12.0241,0.50482 12.86409,0.35536 20.95771,-3.7289 4.63736,-2.34014 12.56716,-7.04473 17.62178,-10.45463 8.40488,-5.67004 117.14644,-73.96397 174.48404,-109.58278 47.00247,-29.1985 61.36971,-39.10089 66.92168,-46.12466 7.50116,-9.48967 10.09432,-17.90722 9.93239,-32.24104 -0.20959,-18.55202 -6.31109,-30.7765 -21.47162,-43.01882 -8.44172,-6.8168 -11.02828,-12.02326 -8.8875,-17.88952 3.89644,-10.67717 13.77338,-12.36247 24.19109,-4.12774 22.84634,18.059 33.55056,39.90241 33.47521,68.31073 -0.0551,20.77281 -5.98472,35.5276 -20.35922,50.6602 -10.75521,11.32243 -20.46662,18.03025 -68.37805,47.22967 -41.90415,25.53831 -133.8488,83.07217 -169.42168,106.01471 -13.21517,8.52304 -25.41178,16.23415 -27.10358,17.13579 -7.95143,4.23773 -34.381873,6.87954 -46.255731,4.62342 z"
     id="path10"
     inkscape:connector-curvature="0" />
  <path
     style="fill:#666666;fill-opacity:0;fill-rule:evenodd;stroke-width:1.30985689"
     d="m 82.478739,470.17431 c -5.262928,-1 -20.982034,-7.80463 -28.589615,-12.37613 -9.815222,-5.89811 -23.886666,-21.18965 -28.911607,-31.41845 -2.246133,-4.57225 -5.173208,-12.43923 -6.504611,-17.48218 -2.310881,-8.75292 -2.389167,-16.56932 -1.725135,-172.24617 l 0.695597,-163.077183 4.247893,-8.96906 c 9.288716,-19.612324 27.134978,-37.827937 45.033,-45.965012 15.01597,-6.826792 41.455489,-7.832862 56.383299,-2.145483 8.80725,3.355494 41.66756,22.859305 71.82141,42.628664 11.88695,7.793282 35.46438,22.675767 52.39428,33.072191 16.9299,10.396423 32.18154,20.272473 33.89254,21.946783 7.99862,7.82708 -1.91924,24.70465 -13.1924,22.45001 -2.30928,-0.46186 -13.65852,-6.94268 -25.22052,-14.40182 C 201.47946,95.530972 126.03339,48.93048 118.95727,45.695226 113.80301,43.33866 108.70029,42.225123 101.02458,41.781884 79.287046,40.526632 62.618959,48.029297 53.183297,63.316276 c -9.436172,15.28781 -8.9896,5.784809 -8.590784,182.810424 l 0.357849,158.84128 3.761814,7.6612 c 4.928027,10.03628 15.509858,20.29158 26.615158,25.79387 7.834795,3.88188 10.441102,4.48285 21.444886,4.94483 12.0241,0.50482 12.86409,0.35536 20.95771,-3.7289 4.63736,-2.34014 12.56716,-7.04473 17.62178,-10.45463 8.40488,-5.67004 117.14644,-73.96397 174.48404,-109.58278 47.00247,-29.1985 61.36971,-39.10089 66.92168,-46.12466 7.50116,-9.48967 10.09432,-17.90722 9.93239,-32.24104 -0.20959,-18.55202 -6.31109,-30.7765 -21.47162,-43.01882 -8.44172,-6.8168 -11.02828,-12.02326 -8.8875,-17.88952 3.89644,-10.67717 13.77338,-12.36247 24.19109,-4.12774 22.84634,18.059 33.55056,39.90241 33.47521,68.31073 -0.0551,20.77281 -5.98472,35.5276 -20.35922,50.6602 -10.75521,11.32243 -20.46662,18.03025 -68.37805,47.22967 -41.90415,25.53831 -133.8488,83.07217 -169.42168,106.01471 -13.21517,8.52304 -25.41178,16.23415 -27.10358,17.13579 -7.95143,4.23773 -34.381873,6.87954 -46.255731,4.62342 z"
     id="path12"
     inkscape:connector-curvature="0" />
  <path
     style="fill:#666666;fill-opacity:0;fill-rule:evenodd;stroke-width:1.30985689"
     d="m 82.478739,470.17431 c -5.262928,-1 -20.982034,-7.80463 -28.589615,-12.37613 -9.815222,-5.89811 -23.886666,-21.18965 -28.911607,-31.41845 -2.246133,-4.57225 -5.173208,-12.43923 -6.504611,-17.48218 -2.310881,-8.75292 -2.389167,-16.56932 -1.725135,-172.24617 l 0.695597,-163.077183 4.247893,-8.96906 c 9.288716,-19.612324 27.134978,-37.827937 45.033,-45.965012 15.01597,-6.826792 41.455489,-7.832862 56.383299,-2.145483 8.80725,3.355494 41.66756,22.859305 71.82141,42.628664 11.88695,7.793282 35.46438,22.675767 52.39428,33.072191 16.9299,10.396423 32.18154,20.272473 33.89254,21.946783 7.99862,7.82708 -1.91924,24.70465 -13.1924,22.45001 -2.30928,-0.46186 -13.65852,-6.94268 -25.22052,-14.40182 C 201.47946,95.530972 126.03339,48.93048 118.95727,45.695226 113.80301,43.33866 108.70029,42.225123 101.02458,41.781884 79.287046,40.526632 62.618959,48.029297 53.183297,63.316276 c -9.436172,15.28781 -8.9896,5.784809 -8.590784,182.810424 l 0.357849,158.84128 3.761814,7.6612 c 4.928027,10.03628 15.509858,20.29158 26.615158,25.79387 7.834795,3.88188 10.441102,4.48285 21.444886,4.94483 12.0241,0.50482 12.86409,0.35536 20.95771,-3.7289 4.63736,-2.34014 12.56716,-7.04473 17.62178,-10.45463 8.40488,-5.67004 117.14644,-73.96397 174.48404,-109.58278 47.00247,-29.1985 61.36971,-39.10089 66.92168,-46.12466 7.50116,-9.48967 10.09432,-17.90722 9.93239,-32.24104 -0.20959,-18.55202 -6.31109,-30.7765 -21.47162,-43.01882 -8.44172,-6.8168 -11.02828,-12.02326 -8.8875,-17.88952 3.89644,-10.67717 13.77338,-12.36247 24.19109,-4.12774 22.84634,18.059 33.55056,39.90241 33.47521,68.31073 -0.0551,20.77281 -5.98472,35.5276 -20.35922,50.6602 -10.75521,11.32243 -20.46662,18.03025 -68.37805,47.22967 -41.90415,25.53831 -133.8488,83.07217 -169.42168,106.01471 -13.21517,8.52304 -25.41178,16.23415 -27.10358,17.13579 -7.95143,4.23773 -34.381873,6.87954 -46.255731,4.62342 z"
     id="path14"
     inkscape:connector-curvature="0" />
  <path
     style="fill:#666666;fill-opacity:0;fill-rule:evenodd;stroke-width:1.30985689"
     d="m 82.478739,470.17431 c -5.262928,-1 -20.982034,-7.80463 -28.589615,-12.37613 -9.815222,-5.89811 -23.886666,-21.18965 -28.911607,-31.41845 -2.246133,-4.57225 -5.173208,-12.43923 -6.504611,-17.48218 -2.310881,-8.75292 -2.389167,-16.56932 -1.725135,-172.24617 l 0.695597,-163.077183 4.247893,-8.96906 c 9.288716,-19.612324 27.134978,-37.827937 45.033,-45.965012 15.01597,-6.826792 41.455489,-7.832862 56.383299,-2.145483 8.80725,3.355494 41.66756,22.859305 71.82141,42.628664 11.88695,7.793282 35.46438,22.675767 52.39428,33.072191 16.9299,10.396423 32.18154,20.272473 33.89254,21.946783 7.99862,7.82708 -1.91924,24.70465 -13.1924,22.45001 -2.30928,-0.46186 -13.65852,-6.94268 -25.22052,-14.40182 C 201.47946,95.530972 126.03339,48.93048 118.95727,45.695226 113.80301,43.33866 108.70029,42.225123 101.02458,41.781884 79.287046,40.526632 62.618959,48.029297 53.183297,63.316276 c -9.436172,15.28781 -8.9896,5.784809 -8.590784,182.810424 l 0.357849,158.84128 3.761814,7.6612 c 4.928027,10.03628 15.509858,20.29158 26.615158,25.79387 7.834795,3.88188 10.441102,4.48285 21.444886,4.94483 12.0241,0.50482 12.86409,0.35536 20.95771,-3.7289 4.63736,-2.34014 12.56716,-7.04473 17.62178,-10.45463 8.40488,-5.67004 117.14644,-73.96397 174.48404,-109.58278 47.00247,-29.1985 61.36971,-39.10089 66.92168,-46.12466 7.50116,-9.48967 10.09432,-17.90722 9.93239,-32.24104 -0.20959,-18.55202 -6.31109,-30.7765 -21.47162,-43.01882 -8.44172,-6.8168 -11.02828,-12.02326 -8.8875,-17.88952 3.89644,-10.67717 13.77338,-12.36247 24.19109,-4.12774 22.84634,18.059 33.55056,39.90241 33.47521,68.31073 -0.0551,20.77281 -5.98472,35.5276 -20.35922,50.6602 -10.75521,11.32243 -20.46662,18.03025 -68.37805,47.22967 -41.90415,25.53831 -133.8488,83.07217 -169.42168,106.01471 -13.21517,8.52304 -25.41178,16.23415 -27.10358,17.13579 -7.95143,4.23773 -34.381873,6.87954 -46.255731,4.62342 z"
     id="path16"
     inkscape:connector-curvature="0" />
  <path
     style="fill:#666666;fill-opacity:0;fill-rule:evenodd;stroke-width:1.30985689"
     d="m 82.478739,470.17431 c -5.262928,-1 -20.982034,-7.80463 -28.589615,-12.37613 -9.815222,-5.89811 -23.886666,-21.18965 -28.911607,-31.41845 -2.246133,-4.57225 -5.173208,-12.43923 -6.504611,-17.48218 -2.310881,-8.75292 -2.389167,-16.56932 -1.725135,-172.24617 l 0.695597,-163.077183 4.247893,-8.96906 c 9.288716,-19.612324 27.134978,-37.827937 45.033,-45.965012 15.01597,-6.826792 41.455489,-7.832862 56.383299,-2.145483 8.80725,3.355494 41.66756,22.859305 71.82141,42.628664 11.88695,7.793282 35.46438,22.675767 52.39428,33.072191 16.9299,10.396423 32.18154,20.272473 33.89254,21.946783 7.99862,7.82708 -1.91924,24.70465 -13.1924,22.45001 -2.30928,-0.46186 -13.65852,-6.94268 -25.22052,-14.40182 C 201.47946,95.530972 126.03339,48.93048 118.95727,45.695226 113.80301,43.33866 108.70029,42.225123 101.02458,41.781884 79.287046,40.526632 62.618959,48.029297 53.183297,63.316276 c -9.436172,15.28781 -8.9896,5.784809 -8.590784,182.810424 l 0.357849,158.84128 3.761814,7.6612 c 4.928027,10.03628 15.509858,20.29158 26.615158,25.79387 7.834795,3.88188 10.441102,4.48285 21.444886,4.94483 12.0241,0.50482 12.86409,0.35536 20.95771,-3.7289 4.63736,-2.34014 12.56716,-7.04473 17.62178,-10.45463 8.40488,-5.67004 117.14644,-73.96397 174.48404,-109.58278 47.00247,-29.1985 61.36971,-39.10089 66.92168,-46.12466 7.50116,-9.48967 10.09432,-17.90722 9.93239,-32.24104 -0.20959,-18.55202 -6.31109,-30.7765 -21.47162,-43.01882 -8.44172,-6.8168 -11.02828,-12.02326 -8.8875,-17.88952 3.89644,-10.67717 13.77338,-12.36247 24.19109,-4.12774 22.84634,18.059 33.55056,39.90241 33.47521,68.31073 -0.0551,20.77281 -5.98472,35.5276 -20.35922,50.6602 -10.75521,11.32243 -20.46662,18.03025 -68.37805,47.22967 -41.90415,25.53831 -133.8488,83.07217 -169.42168,106.01471 -13.21517,8.52304 -25.41178,16.23415 -27.10358,17.13579 -7.95143,4.23773 -34.381873,6.87954 -46.255731,4.62342 z"
     id="path18"
     inkscape:connector-curvature="0" />
  <path
     style="fill:#800000;fill-opacity:0;fill-rule:evenodd;stroke-width:1.30985689"
     d="m 82.478739,470.17431 c -5.262928,-1 -20.982034,-7.80463 -28.589615,-12.37613 -9.815222,-5.89811 -23.886666,-21.18965 -28.911607,-31.41845 -2.246133,-4.57225 -5.173208,-12.43923 -6.504611,-17.48218 -2.310881,-8.75292 -2.389167,-16.56932 -1.725135,-172.24617 l 0.695597,-163.077183 4.247893,-8.96906 c 9.288716,-19.612324 27.134978,-37.827937 45.033,-45.965012 15.01597,-6.826792 41.455489,-7.832862 56.383299,-2.145483 8.80725,3.355494 41.66756,22.859305 71.82141,42.628664 11.88695,7.793282 35.46438,22.675767 52.39428,33.072191 16.9299,10.396423 32.18154,20.272473 33.89254,21.946783 7.99862,7.82708 -1.91924,24.70465 -13.1924,22.45001 -2.30928,-0.46186 -13.65852,-6.94268 -25.22052,-14.40182 C 201.47946,95.530972 126.03339,48.93048 118.95727,45.695226 113.80301,43.33866 108.70029,42.225123 101.02458,41.781884 79.287046,40.526632 62.618959,48.029297 53.183297,63.316276 c -9.436172,15.28781 -8.9896,5.784809 -8.590784,182.810424 l 0.357849,158.84128 3.761814,7.6612 c 4.928027,10.03628 15.509858,20.29158 26.615158,25.79387 7.834795,3.88188 10.441102,4.48285 21.444886,4.94483 12.0241,0.50482 12.86409,0.35536 20.95771,-3.7289 4.63736,-2.34014 12.56716,-7.04473 17.62178,-10.45463 8.40488,-5.67004 117.14644,-73.96397 174.48404,-109.58278 47.00247,-29.1985 61.36971,-39.10089 66.92168,-46.12466 7.50116,-9.48967 10.09432,-17.90722 9.93239,-32.24104 -0.20959,-18.55202 -6.31109,-30.7765 -21.47162,-43.01882 -8.44172,-6.8168 -11.02828,-12.02326 -8.8875,-17.88952 3.89644,-10.67717 13.77338,-12.36247 24.19109,-4.12774 22.84634,18.059 33.55056,39.90241 33.47521,68.31073 -0.0551,20.77281 -5.98472,35.5276 -20.35922,50.6602 -10.75521,11.32243 -20.46662,18.03025 -68.37805,47.22967 -41.90415,25.53831 -133.8488,83.07217 -169.42168,106.01471 -13.21517,8.52304 -25.41178,16.23415 -27.10358,17.13579 -7.95143,4.23773 -34.381873,6.87954 -46.255731,4.62342 z"
     id="path20"
     inkscape:connector-curvature="0" />
</svg>
